<?xml version="1.0" encoding="UTF-8"?>
<svg id="Layer_2" data-name="Layer 2" xmlns="http://www.w3.org/2000/svg" viewBox="0 0 573.03 671.07">
  <defs>
    <style>
      .cls-1 {
        fill: #233d4c;
      }

      .cls-2 {
        fill: #c3c7d0;
      }

      .cls-3 {
        fill: #f27e06;
      }

      .cls-4 {
        fill: #0579c2;
      }
    </style>
  </defs>
  <polygon class="cls-4" points="403.38 311.36 526.47 122.85 46.66 122.85 128.86 246.99 403.38 311.36"/>
  <path class="cls-1" d="M406.79,319.86L124.25,253.61,32.7,115.35h507.63l-133.54,204.51ZM133.47,240.37l266.5,62.49,112.64-172.5H60.62l72.85,110.02Z"/>
  <path class="cls-2" d="M385.07,375.5l11.13-25.11,12.12-42.8-21.03-75.71-18.8-35.38-20.91-15.84h-25.61l-59.88-2.72-28.9-17.57-41.86,11.61-27.22,11.15-30.68,39.87s-37.86,53.65-38.6,54.64-5.69,16.57,2.23,24.99c7.92,8.42,35.63,18.67,35.63,18.67l65.82.83,100.45,16.16,58.89,42.03,27.22-4.82Z"/>
  <path class="cls-1" d="M327.64,316.96s-9.65-18.19-27.28-19.3-46.67,19.3-46.67,19.3l12.43,20.6,12.25.74,44.81-3.15,4.45-18.19Z"/>
  <path class="cls-2" d="M320.86,332.82s-7.61-19.39-19.39-20.32c-11.78-.93-33.87,18.37-33.87,18.37l-22.08,25.58s-2.75,7.25-2.18,9.13,20.53,6.58,20.53,6.58l28.29-2.47,22.89-5.81,6.93-12.99-1.11-18.06Z"/>
  <path class="cls-1" d="M148.38,404.73s3.8-23.01,6.22-36.37c2.41-13.36,5.29-25.98,11.32-29.04h8.6l17.2,16.64s11.38,8.54,20.29,8.66,24.25-2.26,24.25-2.26l15.12-2.54h55.86s44.81-98.75,52.55-135.62c0,0,5.4,30.77-5.74,65.1,0,0,8.15,17.29,9.88,31.64s6.56,39.09,6.56,39.09l11.81-12.37,2.97,18.19,8.44,1.39,29.23-15.31-21.71,36,20.78,3.9-19.48,13.64-96.49,6.28-157.64-7.02Z"/>
  <path class="cls-2" d="M355.75,109.83l-1.48,8.78,5.51,4.89s-7.73,40.7-12.19,51.22-20.58,42.57-45.4,43.55c-24.82.98-58.14-22.64-64.95-39.96-6.8-17.32-3.59-36.37-.62-54.31s5.69-45.77,19.55-61.98,40.08-21.65,64.33-12.62c24.25,9.03,35.26,22.27,37.48,32.66s-2.23,27.77-2.23,27.77Z"/>
  <path class="cls-1" d="M296.62,123.5s24.87,4.58,50.97,5.2l-6.43,28.21s-26.35,1.36-51.71-2.97l7.18-30.43Z"/>
  <path class="cls-1" d="M355.01,114.1s-36.37-2.85-74.35-7.55l-11.01,58.02s31.05,10.39,73.73,6.56l6.8-7.05s-35.44,1.55-69.4-4.76l10.39-42.25s35.02,5.55,70.15,4.56l-6.32-7.53Z"/>
  <path class="cls-1" d="M341.56,169.8s-6.09,32.26-28.24,39.56c-22.14,7.3-51.65-7.27-63.34-24.8-11.69-17.54-14.1-25.93-10.27-45.29,3.84-19.35,7.3-40.91,10.55-55.11s18.4-34.02,47.85-32.16,51.84,16.95,53.81,35.63-.71,30.84-.71,30.84l9-.66s7.21-14.26,2.35-36.37c-4.95-22.52-30.56-38.1-63.71-40.82s-56.66,17.75-61.67,45.59c-5.01,27.84-8.85,47.44-10.58,61.3s1.98,38.72,25.36,57.77,57.4,24.37,77.94,7.92c20.54-16.45,26.35-48.87,29.32-61.11s6.8-30.31,6.8-30.31l-9.65-2.72s-5.35,28.02-10.45,46.58l-4.36,4.18Z"/>
  <path class="cls-1" d="M227.9,155.23s-15.77,4.27-38.78,11.07c-23.01,6.8-29.94,12.12-43.67,29.44s-38.23,50.1-47.13,63.84c-8.91,13.73-18.12,26.75-14.88,40.58,3.25,13.82,24.59,24.77,51.12,31.55l1.95-15.82s-16.7-4.36-26.68-10.48-14.18-10.81-9.85-22.93,24.31-37.86,38.41-56.66,22.79-29.29,30.12-36.25c7.33-6.96,18.28-3.06,25.33,9.65s9.09,25.61,9.09,25.61c0,0,7.33-26.6-17.66-43.79,0,0,22.11-9.74,45.31-14.47l-2.69-11.32Z"/>
  <path class="cls-1" d="M136.6,266.85s14.1-6.68,30.15,8.07c0,0,20.51-23.75,30.15-39.96l5.69,53.32s21.59,6.03,34.11,10.02,23.29,6.87,31.18,22.73c7.89,15.87,6.8,22.53,1.39,29.13s-13.92,5.75-13.92,5.75c0,0,.09,7.42-9.56,9.19s-26.26,6.12-35.91,5.01-25.98-11.97-29.41-17.63c-3.43-5.66-12.71-11.23-12.71-11.23,0,0-17.57-1.89-24-2.57s-14.6.31-12.31-11.44c2.29-11.75,7.55-37.86,30.56-47.04,0,0-8.47-9-25.42-13.36Z"/>
  <path class="cls-2" d="M144.76,324.1s-1.79-26.25,22.94-35.51c1.67-.62,3.52-.46,5.09.38,5.38,2.88,19.04,9.8,31.44,12.77,15.87,3.8,36.28,5.75,45.93,12.99,8.1,6.08,12.47,17.77,13.67,26.75.35,2.66-1.5,5.11-4.15,5.55h0c-2.31.39-4.59-.86-5.47-3.03-1.88-4.65-5.91-12.68-12.96-18.41,0,0,.8,6,3.09,13.48.96,3.13,1.7,6.11,2.24,8.51.68,3.06-1.27,6.09-4.34,6.74h0c-2.7.57-5.42-.9-6.42-3.48-1.72-4.45-4.71-11.19-8.43-15.3,0,0,2.97,9.16,5.02,18.26.75,3.33-1.57,6.57-4.95,6.97h0c-2.71.32-5.27-1.3-6.14-3.89-1.47-4.4-4.2-11.07-8.34-15.4,0,0,2.01,8.89,2.65,15.79.21,2.3-1.29,4.41-3.54,4.94l-.09.02c-2.14.5-4.32-.57-5.25-2.56-1.75-3.73-5.07-9.69-9.92-13.87-7.55-6.49-15.97-13.97-19.18-15.34-3.73-1.59-32.91-6.37-32.91-6.37Z"/>
  <rect class="cls-1" x="90.64" y="402.75" width="392.04" height="18"/>
  <polygon class="cls-3" points="338.06 409.28 397.19 409.28 387.42 404.2 408.33 395.3 386.43 393.94 408.33 366.35 377.4 384.78 377.77 355.96 365.28 382.62 336.33 341.73 349.57 382.31 311.09 366.35 341.52 393.32 292.78 401.85 344.37 404.7 338.06 409.28"/>
  <path class="cls-1" d="M362.86,323.79s10.95-.19,19.05.62c0,0-3.29-4.21-8.49-4.44s-11.41,0-11.41,0l.85,3.82Z"/>
  <path class="cls-1" d="M350.46,176.57s23.72,10.27,33.12,31.18c9.4,20.91,16.08,43.05,21.53,62.23,5.44,19.18,11.75,34.76,4.82,54.43s-16.24,42.84-16.24,42.84l-3.31,5.91-6.9-6.37s8.91-25.61,13.55-37.95c4.64-12.34,7.61-19.39,4.55-31.22s-15.96-53.03-22.92-70.19-10.3-24.31-18.9-31.45c-7.98-6.63-14.41-10.3-14.41-10.3l5.1-9.09Z"/>
  <g>
    <path class="cls-1" d="M95.15,586.06h-.17l-9.2,43.43h-6.62l-9.2-43.43h-.17v43.77h-10.49v-63.04h14.53l8.69,38.36h.17l8.6-38.36h14.96v63.04h-11.09v-43.77Z"/>
    <path class="cls-1" d="M128.51,593.54h16.17v8.77h-16.17v18.75h20.04v8.77h-31.13v-62.95h31.13v8.77h-20.04v17.89Z"/>
    <path class="cls-1" d="M176.85,629.83h-11.09v-54.01h-11.78v-9.03h34.66v9.03h-11.78v54.01Z"/>
    <path class="cls-1" d="M216.75,629.83l-1.46-8.6h-14.1l-1.46,8.6h-11.09l12.64-63.04h14.1l12.64,63.04h-11.27ZM208.41,580.3h-.34l-4.99,29.76h10.32l-.6-3.18h.09l-4.47-26.57Z"/>
    <path class="cls-1" d="M266.03,629.83h-29.58v-62.95h11.09v53.92h18.49v9.03Z"/>
    <path class="cls-1" d="M319.26,592.25h-.26l-6.36,37.5h-11.27l-11.27-62.95h11.35l6.36,41.8h.26l6.28-41.8h9.8l6.28,41.8h.17l6.36-41.8h11.09l-11.27,62.95h-11.27l-6.28-37.5Z"/>
    <path class="cls-1" d="M391.84,581.84v32.94c0,4.99-1.59,8.89-4.77,11.7-3.18,2.81-7.55,4.21-13.12,4.21s-9.92-1.4-13.07-4.21c-3.15-2.81-4.73-6.71-4.73-11.7v-32.94c0-4.99,1.58-8.89,4.73-11.7,3.15-2.81,7.51-4.21,13.07-4.21s9.93,1.41,13.12,4.21c3.18,2.81,4.77,6.71,4.77,11.7ZM367.25,581.94v32.83c0,4.77,2.24,7.15,6.71,7.15s6.79-2.38,6.79-7.15v-32.83c0-2.35-.57-4.15-1.72-5.38-1.15-1.23-2.84-1.85-5.07-1.85s-3.84.62-4.99,1.85c-1.15,1.24-1.72,3.03-1.72,5.38Z"/>
    <path class="cls-1" d="M418.57,603.17h-5.14v26.66h-11.09v-63.04h15.91c6.02,0,10.59,1.36,13.72,4.08,3.12,2.72,4.69,6.69,4.69,11.91v4.47c0,6.71-2.6,11.32-7.8,13.85l6.68,28.55h-11.65l-5.31-26.49ZM413.43,594.4h4.53c2.68,0,4.61-.62,5.81-1.87s1.79-3.2,1.79-5.86v-3.3c0-2.72-.6-4.7-1.79-5.94s-3.13-1.87-5.81-1.87h-4.53v18.83Z"/>
    <path class="cls-1" d="M473.2,629.75l-10.84-27.52-4.82,8.17v19.35h-11.09v-62.95h11.09v26.32h.17l15.39-26.32h11.61l-15.05,25.03,15.31,37.93h-11.78Z"/>
    <path class="cls-1" d="M522.13,580.04v3.18l-10.66.95v-3.96c0-3.67-1.89-5.5-5.68-5.5s-5.59,1.84-5.59,5.5v.86c0,.92.14,1.82.43,2.71.29.89.77,1.81,1.46,2.75.69.95,1.63,1.96,2.84,3.05,1.2,1.09,2.72,2.32,4.56,3.7,2.52,1.83,4.67,3.57,6.45,5.2,1.78,1.63,3.23,3.24,4.34,4.82,1.12,1.58,1.92,3.18,2.41,4.82.49,1.63.73,3.4.73,5.29v3.18c0,4.47-1.48,7.94-4.43,10.41-2.95,2.47-7.21,3.7-12.77,3.7s-9.73-1.22-12.69-3.66c-2.95-2.44-4.43-5.89-4.43-10.36v-6.02l10.66-.86v6.19c0,3.96,2.09,5.93,6.28,5.93s6.28-1.98,6.28-5.94v-2.07c0-.98-.16-1.92-.47-2.84-.32-.92-.85-1.87-1.59-2.84-.75-.98-1.73-2.01-2.97-3.1-1.23-1.09-2.77-2.32-4.6-3.7-2.52-1.84-4.66-3.57-6.41-5.21-1.75-1.64-3.15-3.23-4.21-4.78-1.06-1.55-1.82-3.14-2.28-4.78-.46-1.64-.69-3.37-.69-5.21v-1.38c0-4.48,1.42-7.95,4.26-10.42,2.84-2.47,6.92-3.7,12.25-3.7s9.42,1.23,12.25,3.7c2.84,2.47,4.26,5.93,4.26,10.41Z"/>
  </g>
  <g>
    <path class="cls-1" d="M109.01,438.5v21.8h36.33v83.43h30.27v-83.43h36.33v-21.8h-102.93Z"/>
    <path class="cls-1" d="M304.28,507.24c-1.86,5.14-4.39,9.08-7.59,11.84-4.03,3.47-9.38,5.21-16.02,5.21-8.9,0-15.49-2.71-19.77-8.13-4.27-5.43-6.41-13.78-6.41-25.05s2.32-18.96,6.95-24.65c4.63-5.68,11.27-8.53,19.94-8.53,11.4,0,19.11,5.43,23.15,16.28l27.96-5.69c-3.81-10.82-9.86-18.82-18.17-24-8.31-5.17-19.29-7.76-32.94-7.76-8.9,0-16.89,1.26-23.95,3.79-7.06,2.52-13.09,6.15-18.07,10.88-4.99,4.74-8.82,10.47-11.49,17.2-2.67,6.73-4,14.31-4,22.72s1.3,16.12,3.91,22.8c2.61,6.68,6.41,12.36,11.4,17.04,4.98,4.68,11.07,8.23,18.25,10.65,7.18,2.41,15.34,3.62,24.48,3.62,27.66,0,44.76-11.63,51.29-34.91l-28.92-3.31Z"/>
    <path class="cls-1" d="M458.47,497.12c-3.98-4.37-9.89-7.44-17.72-9.23,5.93-2.11,10.42-5.12,13.44-9.02,3.03-3.91,4.54-8.55,4.54-13.94,0-4.64-1.3-8.97-3.91-12.97-2.62-4.01-6.12-7.08-10.51-9.19-1.78-.84-3.53-1.55-5.25-2.13-1.72-.58-3.62-1.03-5.7-1.35-2.08-.32-4.51-.53-7.3-.63-2.79-.11-6.14-.16-10.06-.16h-56.09v105.23h51.81c3.57,0,6.62-.03,9.17-.08,2.56-.05,4.87-.13,6.95-.24,2.07-.1,3.98-.26,5.7-.47,1.72-.21,3.59-.48,5.61-.79,3.67-.63,7.06-1.81,10.15-3.55,3.08-1.73,5.75-3.86,8.01-6.39,2.25-2.52,4.01-5.39,5.25-8.59,1.25-3.21,1.87-6.55,1.87-10.02,0-6.63-1.99-12.12-5.96-16.48ZM390.18,457.93h15.03c9.18,0,15.47.77,18.87,2.31,3.4,1.54,5.09,4.43,5.09,8.67,0,2.13-.35,3.93-1.07,5.41-.72,1.49-1.97,2.65-3.76,3.5-1.78.85-4.17,1.47-7.15,1.84s-6.68.55-11.09.55h-15.92v-22.28ZM428.46,520.9c-3.32,1.84-9.26,2.76-17.8,2.76h-20.48v-24.81h19.05c9.02,0,15.32.9,18.88,2.69s5.34,5,5.34,9.64-1.67,7.87-4.99,9.72Z"/>
  </g>
</svg>