<?xml version="1.0" encoding="utf-8"?>
<!-- Generator: Adobe Illustrator 26.0.1, SVG Export Plug-In . SVG Version: 6.00 Build 0)  -->
<svg version="1.1" xmlns="http://www.w3.org/2000/svg" xmlns:xlink="http://www.w3.org/1999/xlink" x="0px" y="0px"
	 viewBox="0 0 564.55 661.15" style="enable-background:new 0 0 564.55 661.15;" xml:space="preserve">
<style type="text/css">
	.st0{fill:#FFFFFF;}
</style>
<g id="Layer_1">
</g>
<g id="Layer_2">
	<g>
		<path class="st0" d="M94.07,254.62c-8.91,13.73-18.12,26.75-14.88,40.58c3.1,13.21,22.74,23.8,47.64,30.62
			c-0.06,8.01,6.99,7.31,12.7,7.91c4.52,0.48,14.53,1.55,20.08,2.15c-4.66,4.62-7.14,15.77-9.26,27.51
			c-1.99,11-4.92,28.54-5.89,34.39H86.4v18h392.04v-18h-76.28l15.6-10.92l-20.78-3.9l21.71-36l-29.23,15.31
			c0,0,9.31-23.16,16.24-42.84c1.7-4.82,2.6-9.39,2.91-13.83l127.48-195.22H356.98c1.79-4.97,5.02-17.2,1.34-33.91
			c-4.95-22.52-30.56-38.1-63.71-40.82c-33.15-2.72-56.66,17.75-61.67,45.59c-1.97,10.94-3.75,20.6-5.3,29.15H28.46l81,122.32
			C103.05,241.5,97.44,249.43,94.07,254.62z M237.63,324.15c0.48,2.46,1.27,6,2.48,9.96c0.96,3.13,1.7,6.11,2.24,8.51
			c0.68,3.06-1.27,6.09-4.34,6.74c-2.7,0.57-5.42-0.9-6.42-3.48c-1.72-4.45-4.71-11.19-8.43-15.3c0,0,2.97,9.16,5.02,18.26
			c0.75,3.33-1.57,6.57-4.95,6.97h0c-2.71,0.32-5.27-1.3-6.14-3.89c-1.47-4.4-4.2-11.07-8.34-15.4c0,0,2.01,8.89,2.65,15.79
			c0.21,2.3-1.29,4.41-3.54,4.94l-0.09,0.02c-2.14,0.5-4.32-0.57-5.25-2.56c-1.75-3.73-5.07-9.69-9.92-13.87
			c-7.55-6.49-15.97-13.97-19.18-15.34c-3.73-1.59-32.91-6.37-32.91-6.37s-0.07-0.99,0.01-2.64c0.3-6.89,2.99-25.4,22.94-32.87
			c1.67-0.62,3.52-0.46,5.09,0.38c5.38,2.88,19.04,9.8,31.44,12.77c15.87,3.8,36.28,5.75,45.93,12.99c2.35,1.76,4.38,4.01,6.11,6.51
			c0.91,1.32,1.75,2.7,2.5,4.14c1.16,2.24,2.13,4.58,2.91,6.92c0.45,1.37,0.85,2.73,1.17,4.07c0.43,1.76,0.75,3.48,0.97,5.11
			c0.35,2.66-1.5,5.11-4.15,5.55c-1.76,0.3-3.49-0.36-4.61-1.64c-0.35-0.4-0.65-0.87-0.86-1.39c-1.46-3.61-4.23-9.27-8.7-14.3
			c-1.28-1.44-2.69-2.84-4.26-4.11C237.02,320.62,237.2,321.96,237.63,324.15z M251.12,350.96c0,0,8.52,0.84,13.92-5.75
			c2.92-3.56,4.56-7.15,4.23-12.17c-0.08-1.21-0.27-2.5-0.59-3.89c-0.41-1.82-1.05-3.83-1.91-6.05
			c6.65-5.32,21.52-16.26,30.46-15.55c9.46,0.74,16.23,13.38,18.53,18.34c-0.69,1.6-1.37,3.16-2.02,4.66
			c-2.05,4.71-3.9,8.92-5.46,12.46c-3.26,7.38-5.29,11.85-5.29,11.85h-53.01C251.15,352.8,251.12,350.96,251.12,350.96z
			 M404.09,361.39l-21.9,27.59l21.9,1.36l-17.49,7.45l-3.41,1.45l3.85,2l5.92,3.07h-53.15h-5.99l6.31-4.58l-35.33-1.95l-16.26-0.9
			l48.74-8.54l-30.43-26.97l38.47,15.96l-3.36-10.29l-9.88-30.29l26.68,37.68l2.27,3.2l1.84-3.93L373.54,351l-0.27,20.89l-0.1,7.94
			L404.09,361.39z M359.93,125.39h148.45L405.86,282.4c-1.45-5.6-3.26-11.31-4.98-17.38c-5.44-19.18-12.12-41.32-21.53-62.23
			c-7.77-17.29-25.32-27.29-31.17-30.24c3.56-10.36,5.47-19.93,6.8-25.43C356.63,140.31,358.55,131.69,359.93,125.39z
			 M351.61,116.77c-0.07,0.34-0.14,0.72-0.22,1.12c-0.3,1.49-0.67,3.36-1.11,5.51c-26.57-0.09-57.9-4.86-57.9-4.86l-1.62,6.85
			l-5.56,23.58c20.7,3.53,48.9,3.67,58.58,3.6c-0.57,2.29-1.14,4.52-1.71,6.65c-10.08,0.2-38.27,0.19-65.52-4.87l7.12-28.96
			l1.84-7.5l1.42-5.78C286.94,112.11,318.41,117.1,351.61,116.77z M235.47,134.31c0.58-2.93,1.15-5.92,1.72-8.91
			c0.47-2.5,0.93-5,1.39-7.5c0.46-2.51,0.92-5.02,1.37-7.5c2.12-11.66,4.13-22.73,6.07-31.19c3.25-14.2,18.4-34.02,47.85-32.16
			c29.44,1.86,51.84,16.95,53.81,35.63c1.25,11.84,0.63,21.06,0.01,26.22c-9.52-0.79-39.83-3.41-71.27-7.3l-1.67,8.8l-1.42,7.5
			l-1.42,7.5l-6.49,34.22c0,0,30.02,10.03,71.58,6.73c-0.44,1.85-1.34,5.27-2.87,9.35c-3.76,10.08-11.32,24.18-25.04,28.7
			c-22.14,7.3-51.65-7.27-63.34-24.8c-5.39-8.09-8.8-14.23-10.55-20.4C233.16,151.98,233.41,144.74,235.47,134.31z M247.72,200.32
			c23.38,19.05,57.4,24.37,77.94,7.92c8.36-6.7,14.28-16.05,18.56-25.6c2.64,1.72,6.71,4.55,11.31,8.37
			c8.6,7.14,11.94,14.29,18.9,31.45c6.96,17.16,19.86,58.36,22.92,70.19c0.18,0.7,0.34,1.38,0.48,2.05c0.89,4.24,0.96,7.9,0.45,11.5
			c-0.34,2.4-0.94,4.78-1.73,7.3c-0.99,3.15-2.28,6.5-3.74,10.38c-3.55,9.45-9.6,26.65-12.24,34.21l-2.51-15.38l-11.81,12.37
			c0,0-4.24-21.72-6.19-36.26c3.22-0.02,11.3,0,17.64,0.63c0,0-3.29-4.21-8.49-4.44c-3.49-0.16-7.43-0.1-9.65-0.05
			c-0.49-3.52-1.34-7.18-2.34-10.69c-0.83-2.93-1.77-5.77-2.69-8.33c-1.24-3.46-2.45-6.42-3.33-8.49c-0.83-1.95-1.37-3.1-1.37-3.1
			c11.13-34.33,5.74-65.1,5.74-65.1c-3.11,14.83-12.22,39.67-22,64.07c-0.94,2.35-1.89,4.7-2.84,7.04
			c-0.96,2.36-1.92,4.71-2.88,7.03c-1.83,4.43-3.64,8.76-5.41,12.95c-2.88-4.52-11.94-16.72-26.28-17.63
			c-11.79-0.74-28.67,8.13-38.56,14.1c-7.01-8-15.53-10.4-25.09-13.45c-12.53-3.99-34.11-10.02-34.11-10.02l-1.78-16.72l-0.84-7.9
			l-0.84-7.9l-2.22-20.8c-3.2,5.37-7.59,11.57-12.03,17.46c-1.69,2.24-3.39,4.44-5.03,6.52c-1.83,2.32-3.59,4.52-5.19,6.49
			c-4.59,5.65-7.91,9.49-7.91,9.49c-16.05-14.75-30.15-8.07-30.15-8.07c16.95,4.36,25.42,13.36,25.42,13.36
			c-16.82,6.71-24.15,22.47-27.77,35.05c-4.89-1.42-16.68-5.1-24.42-9.86c-9.97-6.12-14.18-10.81-9.85-22.93
			c2.7-7.56,11.49-20.42,21.14-33.59c1.57-2.14,3.16-4.28,4.75-6.41c1.6-2.15,3.2-4.27,4.78-6.37c2.68-3.56,5.3-7.03,7.74-10.29
			c14.1-18.8,22.79-29.29,30.12-36.25c7.33-6.96,18.28-3.06,25.33,9.65c7.05,12.71,9.09,25.61,9.09,25.61s7.33-26.6-17.66-43.79
			c0,0,20.35-8.96,42.49-13.87C226.3,174.47,233.23,188.51,247.72,200.32z M56.39,125.39h168.59c-1.11,6.52-2,12.21-2.62,17.15
			c-0.3,2.42-0.43,5.18-0.33,8.18c-4.58,1.26-18.49,5.11-37.16,10.63c-23.01,6.8-29.94,12.12-43.67,29.44
			c-6.07,7.66-14.25,18.35-22.26,29.08L56.39,125.39z"/>
		<polygon class="st0" points="78.44,600.19 78.27,600.19 69.58,561.83 55.05,561.83 55.05,624.87 65.54,624.87 65.54,581.1 
			65.71,581.1 74.92,624.53 81.54,624.53 90.74,581.1 90.91,581.1 90.91,624.87 102.01,624.87 102.01,561.83 87.04,561.83 		"/>
		<polygon class="st0" points="113.19,624.87 144.32,624.87 144.32,616.1 124.28,616.1 124.28,597.35 140.45,597.35 140.45,588.58 
			124.28,588.58 124.28,570.69 144.32,570.69 144.32,561.92 113.19,561.92 		"/>
		<polygon class="st0" points="184.39,561.83 149.74,561.83 149.74,570.86 161.52,570.86 161.52,624.87 172.61,624.87 
			172.61,570.86 184.39,570.86 		"/>
		<path class="st0" d="M197.03,561.83l-12.64,63.04h11.09l1.46-8.6h14.1l1.46,8.6h11.27l-12.64-63.04H197.03z M198.84,605.09
			l4.99-29.76h0.34l4.47,26.57h-0.09l0.6,3.18H198.84z"/>
		<polygon class="st0" points="243.3,561.92 232.21,561.92 232.21,624.87 261.79,624.87 261.79,615.84 243.3,615.84 		"/>
		<polygon class="st0" points="326.38,603.63 326.2,603.63 319.93,561.83 310.12,561.83 303.84,603.63 303.59,603.63 297.22,561.83 
			285.87,561.83 297.14,624.79 308.4,624.79 314.77,587.29 315.02,587.29 321.3,624.79 332.57,624.79 343.83,561.83 332.74,561.83 
					"/>
		<path class="st0" d="M382.83,565.19c-3.18-2.81-7.55-4.21-13.12-4.21c-5.56,0-9.92,1.41-13.07,4.21
			c-3.15,2.81-4.73,6.71-4.73,11.7v32.94c0,4.99,1.58,8.89,4.73,11.7c3.15,2.81,7.51,4.21,13.07,4.21c5.56,0,9.93-1.4,13.12-4.21
			c3.18-2.81,4.77-6.71,4.77-11.7v-32.94C387.61,571.9,386.02,568,382.83,565.19z M376.51,609.81c0,4.77-2.27,7.15-6.79,7.15
			c-4.47,0-6.71-2.38-6.71-7.15v-32.83c0-2.35,0.57-4.15,1.72-5.38c1.15-1.23,2.81-1.85,4.99-1.85c2.24,0,3.93,0.62,5.07,1.85
			c1.15,1.24,1.72,3.03,1.72,5.38V609.81z"/>
		<path class="st0" d="M427.72,565.92c-3.13-2.72-7.7-4.08-13.72-4.08H398.1v63.04h11.09v-26.66h5.14l5.31,26.49h11.65l-6.68-28.55
			c5.2-2.52,7.8-7.14,7.8-13.85v-4.47C432.41,572.61,430.85,568.64,427.72,565.92z M421.32,581.72c0,2.66-0.6,4.62-1.79,5.86
			s-3.13,1.87-5.81,1.87h-4.53v-18.83h4.53c2.68,0,4.61,0.62,5.81,1.87s1.79,3.22,1.79,5.94V581.72z"/>
		<polygon class="st0" points="480.48,561.83 468.87,561.83 453.48,588.15 453.31,588.15 453.31,561.83 442.21,561.83 
			442.21,624.79 453.31,624.79 453.31,605.44 458.12,597.27 468.96,624.79 480.74,624.79 465.43,586.86 		"/>
		<path class="st0" d="M516.05,598.34c-1.12-1.58-2.57-3.18-4.34-4.82c-1.78-1.63-3.93-3.37-6.45-5.2c-1.84-1.38-3.35-2.61-4.56-3.7
			c-1.2-1.09-2.15-2.11-2.84-3.05c-0.69-0.95-1.18-1.86-1.46-2.75c-0.29-0.89-0.43-1.79-0.43-2.71v-0.86c0-3.67,1.86-5.5,5.59-5.5
			c3.78,0,5.68,1.84,5.68,5.5v3.96l10.66-0.95v-3.18c0-4.47-1.42-7.94-4.26-10.41c-2.84-2.46-6.92-3.7-12.25-3.7
			s-9.42,1.24-12.25,3.7c-2.84,2.47-4.26,5.94-4.26,10.42v1.38c0,1.84,0.23,3.57,0.69,5.21c0.46,1.64,1.22,3.23,2.28,4.78
			c1.06,1.55,2.46,3.14,4.21,4.78c1.75,1.64,3.88,3.37,6.41,5.21c1.83,1.38,3.37,2.61,4.6,3.7c1.23,1.09,2.22,2.13,2.97,3.1
			c0.74,0.98,1.28,1.92,1.59,2.84c0.31,0.92,0.47,1.87,0.47,2.84v2.07c0,3.96-2.09,5.94-6.28,5.94c-4.19,0-6.28-1.98-6.28-5.93
			v-6.19l-10.66,0.86v6.02c0,4.46,1.48,7.92,4.43,10.36c2.95,2.44,7.18,3.66,12.69,3.66c5.56,0,9.82-1.23,12.77-3.7
			c2.95-2.46,4.43-5.93,4.43-10.41v-3.18c0-1.89-0.24-3.66-0.73-5.29C517.97,601.52,517.16,599.92,516.05,598.34z"/>
		<polygon class="st0" points="141.11,538.77 171.38,538.77 171.38,455.34 207.71,455.34 207.71,433.54 104.78,433.54 
			104.78,455.34 141.11,455.34 		"/>
		<path class="st0" d="M328.97,505.59l-28.92-3.31c-1.86,5.14-4.39,9.08-7.59,11.84c-4.03,3.47-9.38,5.21-16.02,5.21
			c-8.9,0-15.49-2.71-19.77-8.13c-4.27-5.43-6.41-13.78-6.41-25.05c0-10.74,2.32-18.96,6.95-24.65c4.63-5.68,11.27-8.53,19.94-8.53
			c11.4,0,19.11,5.43,23.15,16.28l27.96-5.69c-3.81-10.82-9.86-18.82-18.17-24c-8.31-5.17-19.29-7.76-32.94-7.76
			c-8.9,0-16.89,1.26-23.95,3.79c-7.06,2.52-13.09,6.15-18.07,10.88c-4.99,4.74-8.82,10.47-11.49,17.2c-2.67,6.73-4,14.31-4,22.72
			c0,8.52,1.3,16.12,3.91,22.8c2.61,6.68,6.41,12.36,11.4,17.04c4.98,4.68,11.07,8.23,18.25,10.65c7.18,2.41,15.34,3.62,24.48,3.62
			C305.34,540.5,322.44,528.87,328.97,505.59z"/>
		<path class="st0" d="M453.08,527.25c2.25-2.52,4.01-5.39,5.25-8.59c1.25-3.21,1.87-6.55,1.87-10.02c0-6.63-1.99-12.12-5.96-16.48
			c-3.98-4.37-9.89-7.44-17.72-9.23c5.93-2.11,10.42-5.12,13.44-9.02c3.03-3.91,4.54-8.55,4.54-13.94c0-4.64-1.3-8.97-3.91-12.97
			c-2.62-4.01-6.12-7.08-10.51-9.19c-1.78-0.84-3.53-1.55-5.25-2.13c-1.72-0.58-3.62-1.03-5.7-1.35c-2.08-0.32-4.51-0.53-7.3-0.63
			c-2.79-0.11-6.14-0.16-10.06-0.16h-56.09v105.23h51.81c3.57,0,6.62-0.03,9.17-0.08c2.56-0.05,4.87-0.13,6.95-0.24
			c2.07-0.1,3.98-0.26,5.7-0.47c1.72-0.21,3.59-0.48,5.61-0.79c3.67-0.63,7.06-1.81,10.15-3.55
			C448.15,531.91,450.82,529.78,453.08,527.25z M385.95,452.97h15.03c9.18,0,15.47,0.77,18.87,2.31c3.4,1.54,5.09,4.43,5.09,8.67
			c0,2.13-0.35,3.93-1.07,5.41c-0.72,1.49-1.97,2.65-3.76,3.5c-1.78,0.85-4.17,1.47-7.15,1.84s-6.68,0.55-11.09,0.55h-15.92V452.97z
			 M424.23,515.94c-3.32,1.84-9.26,2.76-17.8,2.76h-20.48v-24.81H405c9.02,0,15.32,0.9,18.88,2.69s5.34,5,5.34,9.64
			C429.22,510.85,427.55,514.09,424.23,515.94z"/>
	</g>
</g>
</svg>
